<svg width="128" height="128" viewBox="0 0 128 128" xmlns="http://www.w3.org/2000/svg">
  <!-- Simple white mustache with black outline on transparent background -->
  <path d="M20 64 C20 50, 30 45, 40 50 C50 55, 55 60, 60 62 C62 63, 64 64, 64 64 C64 64, 66 63, 68 62 C73 60, 78 55, 88 50 C98 45, 108 50, 108 64 C108 75, 98 78, 88 75 C78 72, 73 68, 68 66 C66 65, 64 64, 64 64 C64 64, 62 65, 60 66 C55 68, 50 72, 40 75 C30 78, 20 75, 20 64 Z" 
        fill="white" 
        stroke="black" 
        stroke-width="4"/>
  <!-- Left curl -->
  <circle cx="20" cy="64" r="10" fill="white" stroke="black" stroke-width="3"/>
  <!-- Right curl -->
  <circle cx="108" cy="64" r="10" fill="white" stroke="black" stroke-width="3"/>
</svg>